<svg width="1024" height="500" viewBox="0 0 1024 500" fill="none" xmlns="http://www.w3.org/2000/svg">
  <defs>
    <radialGradient id="goldGlow" cx="0" cy="0" r="1" gradientUnits="userSpaceOnUse" gradientTransform="translate(880 40) rotate(140) scale(520 360)">
      <stop stop-color="#D9A94B" stop-opacity="0.28"/>
      <stop offset="1" stop-color="#D9A94B" stop-opacity="0"/>
    </radialGradient>
    <linearGradient id="bg" x1="0" y1="0" x2="1024" y2="500">
      <stop stop-color="#0A070B"/>
      <stop offset="0.54" stop-color="#151016"/>
      <stop offset="1" stop-color="#21150F"/>
    </linearGradient>
    <filter id="shadow" x="-50%" y="-50%" width="200%" height="200%">
      <feDropShadow dx="0" dy="26" stdDeviation="22" flood-color="#000" flood-opacity="0.34"/>
    </filter>
    <pattern id="grid" width="92" height="92" patternUnits="userSpaceOnUse">
      <path d="M92 0H0V92" stroke="#FFFFFF" stroke-opacity="0.045"/>
    </pattern>
    <linearGradient id="photo1" x1="0" x2="1"><stop stop-color="#DCA948"/><stop offset="1" stop-color="#D6C8AD"/></linearGradient>
    <linearGradient id="photo2" x1="0" x2="1"><stop stop-color="#A4C5A6"/><stop offset="1" stop-color="#E4D1A8"/></linearGradient>
    <linearGradient id="photo3" x1="0" x2="1"><stop stop-color="#E39685"/><stop offset="1" stop-color="#D9C3A3"/></linearGradient>
  </defs>
  <rect width="1024" height="500" fill="url(#bg)"/>
  <rect width="1024" height="500" fill="url(#grid)"/>
  <rect width="1024" height="500" fill="url(#goldGlow)"/>
  <path d="M580 122C650 196 684 277 748 320C802 357 835 229 880 176" stroke="#A87334" stroke-width="7" stroke-linecap="round" opacity="0.72"/>
  <g transform="translate(602 226) rotate(-8)" filter="url(#shadow)">
    <rect x="-96" y="-110" width="192" height="222" rx="24" fill="#FFF1D2"/>
    <rect x="-78" y="-92" width="156" height="116" rx="16" fill="url(#photo1)"/>
    <circle cx="0" cy="-118" r="9" fill="#D9A94B" stroke="#FFF1D2" stroke-width="3"/>
    <rect x="-38" y="-110" width="76" height="22" rx="6" fill="#E8D7AD" opacity="0.78"/>
    <text x="-76" y="62" font-family="Avenir Next, Inter, Arial" font-size="20" font-weight="800" fill="#21150F">Travel walk</text>
    <text x="-76" y="88" font-family="Avenir Next, Inter, Arial" font-size="15" font-weight="700" fill="#806D56">Memory chapter</text>
  </g>
  <g transform="translate(766 338) rotate(7)" filter="url(#shadow)">
    <rect x="-92" y="-104" width="184" height="214" rx="23" fill="#FFF1D2"/>
    <rect x="-74" y="-86" width="148" height="108" rx="15" fill="url(#photo2)"/>
    <circle cx="0" cy="-113" r="9" fill="#D9A94B" stroke="#FFF1D2" stroke-width="3"/>
    <rect x="-36" y="-104" width="72" height="22" rx="6" fill="#E8D7AD" opacity="0.78"/>
    <text x="-72" y="60" font-family="Avenir Next, Inter, Arial" font-size="19" font-weight="800" fill="#21150F">Family table</text>
    <text x="-72" y="84" font-family="Avenir Next, Inter, Arial" font-size="14" font-weight="700" fill="#806D56">Connected moments</text>
  </g>
  <g transform="translate(880 200) rotate(-4)" filter="url(#shadow)">
    <rect x="-88" y="-98" width="176" height="204" rx="22" fill="#FFF1D2"/>
    <rect x="-70" y="-80" width="140" height="102" rx="14" fill="url(#photo3)"/>
    <circle cx="0" cy="-106" r="8" fill="#D9A94B" stroke="#FFF1D2" stroke-width="3"/>
    <rect x="-34" y="-98" width="68" height="21" rx="6" fill="#E8D7AD" opacity="0.78"/>
    <text x="-69" y="58" font-family="Avenir Next, Inter, Arial" font-size="18" font-weight="800" fill="#21150F">First launch</text>
    <text x="-69" y="82" font-family="Avenir Next, Inter, Arial" font-size="14" font-weight="700" fill="#806D56">Private wall</text>
  </g>
  <text x="74" y="158" font-family="Avenir Next, Inter, Arial" font-size="76" font-weight="900" fill="#FFF8EA" letter-spacing="-2">LifeThreads</text>
  <text x="78" y="242" font-family="Avenir Next, Inter, Arial" font-size="34" font-weight="700" fill="#D4C7B7">Your memories, hanging together.</text>
  <text x="80" y="316" font-family="Avenir Next, Inter, Arial" font-size="28" font-weight="800" fill="#D2A24A">Private memory wall • Local-first • No social feed</text>
</svg>
