<svg xmlns="http://www.w3.org/2000/svg" width="1920" height="1080" viewBox="0 0 1920 1080">

    <defs>
      <linearGradient id="bg" x1="0" y1="0" x2="1" y2="1">
        <stop offset="0" stop-color="#09080d"/>
        <stop offset="0.45" stop-color="#13090e"/>
        <stop offset="1" stop-color="#25170f"/>
      </linearGradient>
      <radialGradient id="warm" cx="72%" cy="20%" r="72%">
        <stop offset="0" stop-color="#654516" stop-opacity="0.50"/>
        <stop offset="0.42" stop-color="#33200e" stop-opacity="0.25"/>
        <stop offset="1" stop-color="#000000" stop-opacity="0"/>
      </radialGradient>
      <linearGradient id="cardGrad" x1="0" y1="0" x2="1" y2="1">
        <stop offset="0" stop-color="#e0a745"/>
        <stop offset="1" stop-color="#b8c5b3"/>
      </linearGradient>
      <filter id="shadow" x="-30%" y="-30%" width="160%" height="160%">
        <feDropShadow dx="0" dy="22" stdDeviation="24" flood-color="#000" flood-opacity="0.42"/>
      </filter>
      <pattern id="grid" width="118" height="118" patternUnits="userSpaceOnUse">
        <path d="M118 0H0V118" fill="none" stroke="#ffffff" stroke-opacity="0.045" stroke-width="2"/>
      </pattern>
      <pattern id="paper" width="7" height="7" patternUnits="userSpaceOnUse" patternTransform="rotate(45)">
        <line x1="0" y1="0" x2="0" y2="7" stroke="#7a5a29" stroke-opacity="0.10" stroke-width="1"/>
      </pattern>
      <linearGradient id="photoGold" x1="0" y1="0" x2="1" y2="1">
        <stop offset="0" stop-color="#e9b34e"/>
        <stop offset="1" stop-color="#cab28d"/>
      </linearGradient>
      <linearGradient id="photoBlue" x1="0" y1="0" x2="1" y2="1">
        <stop offset="0" stop-color="#9ab9d3"/>
        <stop offset="1" stop-color="#d0bb8b"/>
      </linearGradient>
      <linearGradient id="photoRose" x1="0" y1="0" x2="1" y2="1">
        <stop offset="0" stop-color="#dc9684"/>
        <stop offset="1" stop-color="#b8c69a"/>
      </linearGradient>
    </defs>

    <rect width="1920" height="1080" fill="url(#bg)"/>
    <rect width="1920" height="1080" fill="url(#warm)"/>
    <rect width="1920" height="1080" fill="url(#grid)"/>
    <text x="88" y="150" font-family="Inter, Arial, sans-serif" font-size="74" font-weight="950" fill="#fff5df" letter-spacing="-2">Capture the story</text>
    <text x="92" y="224" font-family="Inter, Arial, sans-serif" font-size="34" font-weight="800" fill="#f0ca6f">A guided flow for the meaning behind photos.</text>
    <rect x="88" y="330" width="600" height="86" rx="38" fill="#d9aa43"/>
    <text x="136" y="386" font-family="Inter, Arial, sans-serif" font-size="31" font-weight="950" fill="#20150e">Private, local-first memory wall</text>
    <rect x="760" y="78" width="1068" height="924" rx="62" fill="#21131a" fill-opacity="0.76" stroke="#4a3425" stroke-width="2" filter="url(#shadow)"/>
    <g transform="translate(750 -170) scale(.98)">

    <text x="118" y="370" font-family="Inter, Arial, sans-serif" font-size="43" font-weight="900" fill="#fff5df">LifeThreads</text>
    <text x="118" y="414" font-family="Inter, Arial, sans-serif" font-size="25" font-weight="700" fill="#d8cbbb">Your memories, hanging together.</text>
    <rect x="118" y="456" width="186" height="70" rx="35" fill="#d9aa43"/>
    <text x="178" y="502" font-family="Inter, Arial, sans-serif" font-size="27" font-weight="900" fill="#1d150b">Wall</text>
    <rect x="330" y="456" width="238" height="70" rx="35" fill="#2a1a20" stroke="#56372a" stroke-width="2"/>
    <text x="390" y="502" font-family="Inter, Arial, sans-serif" font-size="27" font-weight="850" fill="#d8cbbb">Timeline</text>
    <rect x="590" y="456" width="174" height="70" rx="35" fill="#2a1a20" stroke="#56372a" stroke-width="2"/>
    <text x="655" y="502" font-family="Inter, Arial, sans-serif" font-size="27" font-weight="850" fill="#d8cbbb">Map</text>

    <rect x="124" y="590" width="832" height="920" rx="42" fill="#fff4d6" filter="url(#shadow)"/>
    <text x="172" y="678" font-family="Inter, Arial, sans-serif" font-size="38" font-weight="950" fill="#20150e">Create a memory</text>
    <text x="172" y="725" font-family="Inter, Arial, sans-serif" font-size="24" font-weight="750" fill="#755f45">A guided flow for photos, story, feeling, date, and place.</text>
    <rect x="172" y="800" width="300" height="220" rx="28" fill="url(#photoGold)"/>
    <rect x="500" y="800" width="300" height="220" rx="28" fill="url(#photoBlue)"/>
    <rect x="172" y="1060" width="628" height="62" rx="31" fill="#efe0bd"/>
    <text x="202" y="1102" font-family="Inter, Arial, sans-serif" font-size="24" font-weight="900" fill="#20150e">The first evening in Vienna</text>
    <rect x="172" y="1158" width="628" height="150" rx="28" fill="#f8ebca"/>
    <text x="202" y="1205" font-family="Inter, Arial, sans-serif" font-size="23" font-weight="800" fill="#6f5a42">I want to remember how calm the city felt after sunset.</text>
    <rect x="172" y="1350" width="232" height="68" rx="34" fill="#d9aa43"/>
    <text x="228" y="1395" font-family="Inter, Arial, sans-serif" font-size="26" font-weight="950" fill="#20150e">Save story</text>
    </g>
    </svg>