<svg xmlns="http://www.w3.org/2000/svg" width="1920" height="1080" viewBox="0 0 1920 1080">

    <defs>
      <linearGradient id="bg" x1="0" y1="0" x2="1" y2="1">
        <stop offset="0" stop-color="#09080d"/>
        <stop offset="0.45" stop-color="#13090e"/>
        <stop offset="1" stop-color="#25170f"/>
      </linearGradient>
      <radialGradient id="warm" cx="72%" cy="20%" r="72%">
        <stop offset="0" stop-color="#654516" stop-opacity="0.50"/>
        <stop offset="0.42" stop-color="#33200e" stop-opacity="0.25"/>
        <stop offset="1" stop-color="#000000" stop-opacity="0"/>
      </radialGradient>
      <linearGradient id="cardGrad" x1="0" y1="0" x2="1" y2="1">
        <stop offset="0" stop-color="#e0a745"/>
        <stop offset="1" stop-color="#b8c5b3"/>
      </linearGradient>
      <filter id="shadow" x="-30%" y="-30%" width="160%" height="160%">
        <feDropShadow dx="0" dy="22" stdDeviation="24" flood-color="#000" flood-opacity="0.42"/>
      </filter>
      <pattern id="grid" width="118" height="118" patternUnits="userSpaceOnUse">
        <path d="M118 0H0V118" fill="none" stroke="#ffffff" stroke-opacity="0.045" stroke-width="2"/>
      </pattern>
      <pattern id="paper" width="7" height="7" patternUnits="userSpaceOnUse" patternTransform="rotate(45)">
        <line x1="0" y1="0" x2="0" y2="7" stroke="#7a5a29" stroke-opacity="0.10" stroke-width="1"/>
      </pattern>
      <linearGradient id="photoGold" x1="0" y1="0" x2="1" y2="1">
        <stop offset="0" stop-color="#e9b34e"/>
        <stop offset="1" stop-color="#cab28d"/>
      </linearGradient>
      <linearGradient id="photoBlue" x1="0" y1="0" x2="1" y2="1">
        <stop offset="0" stop-color="#9ab9d3"/>
        <stop offset="1" stop-color="#d0bb8b"/>
      </linearGradient>
      <linearGradient id="photoRose" x1="0" y1="0" x2="1" y2="1">
        <stop offset="0" stop-color="#dc9684"/>
        <stop offset="1" stop-color="#b8c69a"/>
      </linearGradient>
    </defs>

    <rect width="1920" height="1080" fill="url(#bg)"/>
    <rect width="1920" height="1080" fill="url(#warm)"/>
    <rect width="1920" height="1080" fill="url(#grid)"/>
    <text x="88" y="150" font-family="Inter, Arial, sans-serif" font-size="74" font-weight="950" fill="#fff5df" letter-spacing="-2">Open each chapter</text>
    <text x="92" y="224" font-family="Inter, Arial, sans-serif" font-size="34" font-weight="800" fill="#f0ca6f">Photos, story, map, notes, and threads.</text>
    <rect x="88" y="330" width="600" height="86" rx="38" fill="#d9aa43"/>
    <text x="136" y="386" font-family="Inter, Arial, sans-serif" font-size="31" font-weight="950" fill="#20150e">Private, local-first memory wall</text>
    <rect x="760" y="78" width="1068" height="924" rx="62" fill="#21131a" fill-opacity="0.76" stroke="#4a3425" stroke-width="2" filter="url(#shadow)"/>
    <g transform="translate(750 -170) scale(.98)">

    <text x="118" y="370" font-family="Inter, Arial, sans-serif" font-size="43" font-weight="900" fill="#fff5df">LifeThreads</text>
    <text x="118" y="414" font-family="Inter, Arial, sans-serif" font-size="25" font-weight="700" fill="#d8cbbb">Your memories, hanging together.</text>
    <rect x="118" y="456" width="186" height="70" rx="35" fill="#d9aa43"/>
    <text x="178" y="502" font-family="Inter, Arial, sans-serif" font-size="27" font-weight="900" fill="#1d150b">Wall</text>
    <rect x="330" y="456" width="238" height="70" rx="35" fill="#2a1a20" stroke="#56372a" stroke-width="2"/>
    <text x="390" y="502" font-family="Inter, Arial, sans-serif" font-size="27" font-weight="850" fill="#d8cbbb">Timeline</text>
    <rect x="590" y="456" width="174" height="70" rx="35" fill="#2a1a20" stroke="#56372a" stroke-width="2"/>
    <text x="655" y="502" font-family="Inter, Arial, sans-serif" font-size="27" font-weight="850" fill="#d8cbbb">Map</text>

    <rect x="120" y="590" width="840" height="980" rx="44" fill="#fff4d8" filter="url(#shadow)"/>
    <rect x="120" y="590" width="840" height="350" rx="44" fill="url(#photoRose)"/>
    <rect x="120" y="590" width="840" height="350" rx="44" fill="url(#paper)"/>
    <text x="172" y="1015" font-family="Inter, Arial, sans-serif" font-size="42" font-weight="950" fill="#20150e">Vienna arrival</text>
    <text x="172" y="1062" font-family="Inter, Arial, sans-serif" font-size="24" font-weight="800" fill="#7a664f">Travel · Vienna · Happy</text>
    <line x1="172" y1="1102" x2="908" y2="1102" stroke="#dec98d" stroke-width="3"/>
    <text x="172" y="1166" font-family="Inter, Arial, sans-serif" font-size="27" font-weight="900" fill="#20150e">Story</text>
    <text x="172" y="1210" font-family="Inter, Arial, sans-serif" font-size="23" font-weight="700" fill="#6d5840">The city lights, the first walk, and the small details that made this night feel alive.</text>
    <rect x="172" y="1282" width="250" height="78" rx="32" fill="#efe0bc"/>
    <text x="206" y="1332" font-family="Inter, Arial, sans-serif" font-size="22" font-weight="900" fill="#20150e">3 photos</text>
    <rect x="450" y="1282" width="285" height="78" rx="32" fill="#efe0bc"/>
    <text x="484" y="1332" font-family="Inter, Arial, sans-serif" font-size="22" font-weight="900" fill="#20150e">2 connections</text>
    <rect x="172" y="1410" width="600" height="80" rx="34" fill="#d9aa43"/>
    <text x="232" y="1462" font-family="Inter, Arial, sans-serif" font-size="26" font-weight="950" fill="#20150e">Open connected memories</text>
    </g>
    </svg>